<svg width="533" height="263" viewBox="0 0 533 263" fill="none" xmlns="http://www.w3.org/2000/svg">
<rect y="143" width="320" height="120" fill="#FF4400"/>
<rect width="320" height="120" fill="#FF4400"/>
<g filter="url(#filter0_d_7:9)">
<path d="M45.1465 238V214.416H69.8535V199.768H45.1465V186.535H72.3926V171.35H25.8594V238H45.1465ZM120.049 201.135V208.361C120.049 211.714 119.593 214.546 118.682 216.857C117.77 219.169 116.468 220.894 114.775 222.033C113.115 223.173 111.13 223.742 108.818 223.742C106.507 223.742 104.505 223.173 102.812 222.033C101.152 220.894 99.8503 219.169 98.9062 216.857C97.9948 214.546 97.5391 211.714 97.5391 208.361V201.135C97.5391 197.749 97.9948 194.917 98.9062 192.639C99.8503 190.327 101.152 188.586 102.812 187.414C104.505 186.21 106.507 185.607 108.818 185.607C111.13 185.607 113.115 186.21 114.775 187.414C116.468 188.586 117.77 190.327 118.682 192.639C119.593 194.917 120.049 197.749 120.049 201.135ZM139.775 208.264V201.379C139.775 195.096 138.587 189.628 136.211 184.973C133.835 180.318 130.335 176.704 125.713 174.133C121.123 171.529 115.492 170.227 108.818 170.227C102.21 170.227 96.5951 171.512 91.9727 174.084C87.3503 176.623 83.8346 180.236 81.4258 184.924C79.0169 189.579 77.8125 195.064 77.8125 201.379V208.264C77.8125 214.481 79.0169 219.917 81.4258 224.572C83.8346 229.195 87.334 232.792 91.9238 235.363C96.5462 237.902 102.178 239.172 108.818 239.172C115.492 239.172 121.123 237.902 125.713 235.363C130.335 232.792 133.835 229.195 136.211 224.572C138.587 219.917 139.775 214.481 139.775 208.264ZM177.129 223.254C174.297 223.254 171.953 222.391 170.098 220.666C168.275 218.941 167.363 216.158 167.363 212.316V171.35H148.076V215.051C148.076 219.901 149.248 224.133 151.592 227.746C153.936 231.359 157.272 234.175 161.602 236.193C165.964 238.179 171.139 239.172 177.129 239.172C183.151 239.172 188.327 238.179 192.656 236.193C197.018 234.175 200.355 231.359 202.666 227.746C205.01 224.133 206.182 219.901 206.182 215.051V171.35H186.895V212.316C186.895 216.092 185.967 218.859 184.111 220.617C182.288 222.375 179.961 223.254 177.129 223.254ZM234.893 238V203.234H235.625L259.6 238H274.102V171.35H256.377V205.578H255.645L231.816 171.35H217.168V238H234.893ZM285.82 171.35V238H313.994C321.025 238 326.787 236.617 331.279 233.85C335.771 231.05 339.092 227.128 341.24 222.082C343.421 217.004 344.512 211.079 344.512 204.309C344.512 197.635 343.454 191.841 341.338 186.926C339.222 181.978 335.918 178.153 331.426 175.451C326.966 172.717 321.156 171.35 313.994 171.35H285.82ZM305.107 186.291H310.576C314.548 186.291 317.542 187.17 319.561 188.928C321.579 190.686 322.946 192.98 323.662 195.812C324.378 198.645 324.736 201.656 324.736 204.846C324.736 208.85 324.346 212.056 323.564 214.465C322.816 216.874 321.774 218.713 320.439 219.982C319.137 221.219 317.64 222.049 315.947 222.473C314.255 222.863 312.464 223.059 310.576 223.059H305.107V186.291ZM399.736 223.059H372.1V211.438H397.93V197.863H372.1V186.291H399.736V171.35H353.008V238H399.736V223.059ZM439.873 171.35H409.941V238H428.838V215.344H435.088L445.928 238H467.168L454.033 212.854C455.368 212.268 456.947 211.193 458.77 209.631C460.625 208.068 462.253 206.001 463.652 203.43C465.052 200.826 465.752 197.684 465.752 194.006C465.752 189.514 464.775 185.575 462.822 182.189C460.902 178.771 458.021 176.118 454.18 174.23C450.371 172.31 445.602 171.35 439.873 171.35ZM428.838 202.307V185.314H436.943C439.287 185.314 441.354 186.031 443.145 187.463C444.967 188.895 445.879 191.06 445.879 193.957C445.879 196.789 445 198.889 443.242 200.256C441.484 201.623 439.368 202.307 436.895 202.307H428.838ZM471.416 217.834C471.449 220.373 471.921 222.896 472.832 225.402C473.776 227.909 475.322 230.204 477.471 232.287C479.619 234.37 482.484 236.047 486.064 237.316C489.678 238.553 494.17 239.172 499.541 239.172C505.856 239.172 511.113 238.228 515.312 236.34C519.544 234.419 522.718 231.799 524.834 228.479C526.95 225.126 528.008 221.285 528.008 216.955C528.008 212.463 527.096 208.866 525.273 206.164C523.451 203.462 521.123 201.428 518.291 200.061C515.459 198.693 512.48 197.749 509.355 197.229L500.518 195.764C497.751 195.308 495.586 194.641 494.023 193.762C492.493 192.85 491.729 191.63 491.729 190.1C491.729 188.439 492.396 187.056 493.73 185.949C495.065 184.842 497.1 184.289 499.834 184.289C501.95 184.289 503.675 184.647 505.01 185.363C506.377 186.047 507.386 186.91 508.037 187.951C508.721 188.993 509.095 190.051 509.16 191.125H526.689C526.689 187.544 525.697 184.175 523.711 181.018C521.758 177.827 518.796 175.24 514.824 173.254C510.853 171.236 505.856 170.227 499.834 170.227C494.463 170.227 489.727 171.073 485.625 172.766C481.556 174.426 478.366 176.851 476.055 180.041C473.743 183.231 472.588 187.105 472.588 191.662C472.588 195.699 473.402 199.051 475.029 201.721C476.657 204.39 478.87 206.49 481.67 208.02C484.469 209.517 487.643 210.591 491.191 211.242L499.639 212.805C502.699 213.391 505.042 214.107 506.67 214.953C508.298 215.799 509.111 217.15 509.111 219.006C509.111 220.048 508.802 221.024 508.184 221.936C507.598 222.814 506.637 223.531 505.303 224.084C503.968 224.605 502.21 224.865 500.029 224.865C498.337 224.865 496.839 224.67 495.537 224.279C494.268 223.889 493.193 223.352 492.314 222.668C491.468 221.984 490.817 221.236 490.361 220.422C489.906 219.576 489.645 218.713 489.58 217.834H471.416Z" fill="white"/>
</g>
<g filter="url(#filter1_d_7:9)">
<path d="M56.9629 95V43.877H74.248V28.3496H20.3906V43.877H37.6758V95H56.9629ZM127.275 80.0586H99.6387V68.4375H125.469V54.8633H99.6387V43.291H127.275V28.3496H80.5469V95H127.275V80.0586ZM154.473 58.5254C154.473 55.1074 154.88 52.2591 155.693 49.9805C156.54 47.6693 157.744 45.9277 159.307 44.7559C160.869 43.5514 162.773 42.9492 165.02 42.9492C167.135 42.9492 168.926 43.4538 170.391 44.4629C171.888 45.472 173.011 46.8555 173.76 48.6133C174.508 50.3385 174.883 52.3079 174.883 54.5215H193.145C193.145 54.0658 193.145 53.6263 193.145 53.2031C193.145 52.7799 193.145 52.3405 193.145 51.8848C193.145 48.1413 192.445 44.7559 191.045 41.7285C189.678 38.7012 187.725 36.1133 185.186 33.9648C182.679 31.7839 179.684 30.1237 176.201 28.9844C172.751 27.8125 168.958 27.2266 164.824 27.2266C158.379 27.2266 152.91 28.5124 148.418 31.084C143.926 33.6556 140.524 37.2852 138.213 41.9727C135.902 46.6602 134.746 52.194 134.746 58.5742V64.8242C134.746 71.1719 135.902 76.6895 138.213 81.377C140.524 86.0645 143.926 89.7103 148.418 92.3145C152.91 94.8861 158.379 96.1719 164.824 96.1719C170.326 96.1719 175.208 95.1628 179.473 93.1445C183.737 91.0938 187.074 88.2292 189.482 84.5508C191.924 80.8724 193.145 76.5755 193.145 71.6602C193.145 71.2044 193.145 70.7487 193.145 70.293C193.145 69.8372 193.145 69.3978 193.145 68.9746H174.883C174.883 71.1556 174.508 73.1087 173.76 74.834C173.011 76.5592 171.888 77.9264 170.391 78.9355C168.926 79.9447 167.135 80.4492 165.02 80.4492C162.773 80.4492 160.869 79.8633 159.307 78.6914C157.744 77.487 156.54 75.7454 155.693 73.4668C154.88 71.1556 154.473 68.3236 154.473 64.9707V58.5254ZM261.26 95V28.3496H241.973V53.8379H221.221V28.3496H201.934V95H221.221V69.2188H241.973V95H261.26Z" fill="white"/>
</g>
<defs>
<filter id="filter0_d_7:9" x="21.8594" y="170.227" width="510.148" height="76.9453" filterUnits="userSpaceOnUse" color-interpolation-filters="sRGB">
<feFlood flood-opacity="0" result="BackgroundImageFix"/>
<feColorMatrix in="SourceAlpha" type="matrix" values="0 0 0 0 0 0 0 0 0 0 0 0 0 0 0 0 0 0 127 0" result="hardAlpha"/>
<feOffset dy="4"/>
<feGaussianBlur stdDeviation="2"/>
<feComposite in2="hardAlpha" operator="out"/>
<feColorMatrix type="matrix" values="0 0 0 0 0 0 0 0 0 0 0 0 0 0 0 0 0 0 0.25 0"/>
<feBlend mode="normal" in2="BackgroundImageFix" result="effect1_dropShadow_7:9"/>
<feBlend mode="normal" in="SourceGraphic" in2="effect1_dropShadow_7:9" result="shape"/>
</filter>
<filter id="filter1_d_7:9" x="16.3906" y="27.2266" width="248.869" height="76.9453" filterUnits="userSpaceOnUse" color-interpolation-filters="sRGB">
<feFlood flood-opacity="0" result="BackgroundImageFix"/>
<feColorMatrix in="SourceAlpha" type="matrix" values="0 0 0 0 0 0 0 0 0 0 0 0 0 0 0 0 0 0 127 0" result="hardAlpha"/>
<feOffset dy="4"/>
<feGaussianBlur stdDeviation="2"/>
<feComposite in2="hardAlpha" operator="out"/>
<feColorMatrix type="matrix" values="0 0 0 0 0 0 0 0 0 0 0 0 0 0 0 0 0 0 0.25 0"/>
<feBlend mode="normal" in2="BackgroundImageFix" result="effect1_dropShadow_7:9"/>
<feBlend mode="normal" in="SourceGraphic" in2="effect1_dropShadow_7:9" result="shape"/>
</filter>
</defs>
</svg>
